<?xml version="1.0" encoding="utf-8"?>
<!-- Generator: Adobe Illustrator 21.1.0, SVG Export Plug-In . SVG Version: 6.00 Build 0)  -->
<svg version="1.1" id="Layer_1" xmlns="http://www.w3.org/2000/svg" xmlns:xlink="http://www.w3.org/1999/xlink" x="0px" y="0px"
	 viewBox="0 0 225 70" style="enable-background:new 0 0 225 70;" xml:space="preserve">
<style type="text/css">
	.st0{fill:#C10C0C;}
</style>
<title>simple</title>
<g>
	<path class="st0" d="M47.4,40.5c0.2,0.5,0.3,1,0.3,1.6c0,2.7-2.5,5.5-4.2,6.8c-1.8,1.3-3.9,1.9-6.1,1.9c-1.4,0-2.9-0.3-4.2-1
		c-2.2-1.2-4.2-4.2-4.2-8c-0.2-9.6,8.3-18.1,13.6-20.5c1.2-0.5,2.4-0.8,3.7-0.8c1.1,0,2.2,0.3,3.1,1c1.6,1.4,2.8,3.3,2.8,5.1
		c0,1-0.2,1.9-0.7,2.7c-0.7,1.4-1.3,2.8-1.8,4.2c-0.1,0.6-0.7,1-1.3,1c-0.2,0-0.4-0.1-0.6-0.2c-1-0.7-1.6-1.8-1.6-3
		c0-0.6,0.1-1.2,0.3-1.8c0.2-0.7,0.5-1.5,0.8-2.2c0.7-1.7,1.2-3.2,0.7-3.8c-1.1-1.2-7.8,2.9-11.8,9.2c-1.9,3-2.9,6.5-3,10.1
		c0,4.1,1.8,5.9,3.5,5.9c2.6,0,6-3,8.7-8.3c0.2-0.5,0.7-0.8,1.3-0.6C47.1,39.9,47.3,40.2,47.4,40.5z"/>
	<path class="st0" d="M86.3,46.1c-1.5,2.9-4.5,4.8-7.8,5.1c-3.1,0-4.5-1.6-4.5-4.1c0-1.1,0.2-2.1,0.6-3.1c1-2.3,2.1-4.6,3.5-6.7
		c0.5-0.8,0.9-1.7,1.2-2.6c-0.4,0-2.5,1.2-5.2,4.2c-2.4,2.7-4.8,7.4-6.6,11.6c-0.1,0.5-0.6,0.8-1.1,0.7c-0.2-0.1-0.4-0.2-0.6-0.4
		c-0.7-0.7-1-1.6-1-2.6c0-0.8,0.2-1.7,0.5-2.5c0.6-1.8,1.4-3.5,2.3-5.2c-0.9,0.4-1.8,0.6-2.7,0.5C63.7,45.5,60.2,51,55.5,51
		c-1.8,0-3.5-0.8-4.5-2.3c-0.8-1.2-1.3-2.7-1.3-4.2c0.1-2.3,0.8-4.6,2-6.6c1.8-3.1,4.8-5.9,7.8-6.1c1.4-0.1,2.7,0.5,3.5,1.7
		c0.2,0.3,0.5,0.6,0.8,0.9c0.9,0.9,1.5,1.9,1.5,4.9c2.3-0.7,5.3-3.9,7.4-7c0.6-0.8,1.3-0.8,1.8-0.1c0.4,0.7,0.6,1.5,0.7,2.3
		c0,0.3,0,0.6,0,0.8c2-1.8,4.5-3.4,5.9-3.4s2.7,1.7,2.7,3.4c0,0.7-0.1,1.3-0.4,1.9c-0.5,0.9-1.1,2.2-1.9,3.4S79.5,44,79,45
		c-0.4,0.9-0.7,1.8-0.7,2.7c0,0.9,0.3,1.6,1,1.6c1.5,0,4.1-3.2,5.9-6.2c0.2-0.4,0.6-0.6,1-0.4c0.2,0.1,0.4,0.2,0.4,0.4
		C87,44,86.9,45.2,86.3,46.1z M54.3,48.6c1.2,0,3.3-1.8,4.9-4.9c0.6-1.2,1.2-2.4,1.7-3.7c-1.3-0.9-2.4-2.2-2.9-3.7
		c-1.1,1.1-2,2.4-2.7,3.7c-1.2,2-1.9,4.3-2,6.6C53.3,47.9,53.7,48.6,54.3,48.6L54.3,48.6z M62.2,35.6c0-0.7-0.4-1-0.7-1
		s-0.7,0.4-0.7,1.1c0,1,0.2,1.9,0.8,2.7C61.9,37.6,62.2,36.6,62.2,35.6L62.2,35.6z"/>
	<path class="st0" d="M88.8,46.7c3.4-5.2,7.2-10.2,11.3-14.9c1-1,1.6-0.8,1.8,0.3s-0.4,2.3-2,4.2c-4,4.5-7.6,9.3-10.9,14.3
		c-0.3,0.6-0.9,0.8-1.5,0.6c0,0,0,0,0,0c-1.9-0.9-2.7-2-2.6-4.5c0.5-5,1.5-10,3.1-14.8c0.3-0.8,0.9-1.1,1.7-0.5
		c1,0.9,1.6,2.1,1.6,3.5c0,0.9-0.1,1.7-0.3,2.6C89.6,42.3,89.2,44.2,88.8,46.7z"/>
	<path class="st0" d="M106.6,43.9c-1.2,0-2.4-0.3-3.4-1c-0.3,0.9-0.4,1.8-0.4,2.8c0,2.1,0.8,3.5,2.3,3.5c3.6,0,6.8-3.5,8.7-6.4
		c0.5-0.8,1.1-0.8,1.5,0.1c0.2,1.1,0,2.2-0.7,3.1c-2.2,3.1-5.7,5-9.4,5.1c-4.4,0-6.8-2.8-6.8-6.6c0-1.9,0.5-3.8,1.5-5.4
		c2.5-5,6.3-7.5,9-7.5c0.6,0,1.1,0.1,1.7,0.4c1.1,0.6,2.2,1.4,2.9,2.5c0.3,0.5,0.5,1.1,0.5,1.8C113.9,39,110.8,43.9,106.6,43.9z
		 M103.9,41.1c0.3,0.2,0.6,0.3,1,0.3c1.1,0,2.7-1.4,3.6-2.7c1.4-1.8,2.4-4.1,1.8-4.5C109.7,33.7,106.2,36.6,103.9,41.1L103.9,41.1z"
		/>
	<path class="st0" d="M122.1,34.2c0,0.3,0,0.6,0,0.9c2-1.9,4.3-3.4,6-3.4c1.4,0,2.6,1.7,2.6,3.4c0,1-0.9,2.6-2.4,5.2
		c-1.5,2.4-3.1,5.5-3.1,7.3c0,1,0.3,1.6,0.9,1.6c1.6,0,4.1-3.1,5.8-6.2c0.5-0.9,1.1-0.8,1.6-0.2c0.4,1.1,0.3,2.3-0.2,3.3
		c-1.3,2.6-4.8,5.1-7.6,5.1c-3.2,0-4.5-1.6-4.5-4.1s2.2-6.9,4-9.8c1-1.6,1.8-2.8,1.4-2.8s-2.7,1.3-5.3,4.2
		c-2.6,2.7-4.7,7.4-6.7,11.6c-0.3,0.8-0.9,1-1.7,0.3c-0.7-0.7-1-1.6-1-2.6c0-0.8,0.2-1.7,0.4-2.5c0.9-2.7,4.5-9.3,7.5-13.7
		c0.6-0.9,1.3-0.8,1.8,0C121.9,32.7,122.1,33.4,122.1,34.2z"/>
	<path class="st0" d="M135.1,51.1c-2.9,0-4.2-1.6-4.2-4c0-1.1,0.2-2.1,0.6-3.1c1.6-4,3.6-7.7,6-11.2c0.7-0.9,1.3-1,1.9-0.3
		c0.9,0.9,1.3,3,0,5.3c-0.9,2-3.1,5.6-3.9,7.5c-0.4,0.9-0.6,1.9-0.7,2.8c0,0.8,0.2,1.2,0.7,1.2c1.9,0,4.4-3.2,5.8-6.4
		c0.4-0.8,1-0.8,1.4,0.1c0.4,1,0.3,2.2-0.2,3.2C141.2,49,138.3,50.9,135.1,51.1z M141.2,27c1.3,0,2.6,1.7,2.6,3.1s-0.7,2.4-1.9,2.4
		c-1.5-0.1-2.8-1.3-2.8-2.9C139.1,28.3,140,27.2,141.2,27z"/>
	<path class="st0" d="M149.4,43.9c-1.2,0-2.4-0.3-3.4-1c-0.3,0.9-0.4,1.8-0.4,2.8c0,2.1,0.9,3.5,2.3,3.5c3.6,0,6.8-3.5,8.7-6.4
		c0.5-0.8,1.1-0.8,1.5,0.1c0.2,1.1,0,2.2-0.7,3.1c-2.2,3.1-5.7,5-9.4,5.1c-4.4,0-6.8-2.8-6.8-6.6c0-1.9,0.5-3.8,1.5-5.4
		c2.5-5,6.3-7.5,9-7.5c0.6,0,1.1,0.1,1.6,0.4c1.1,0.6,2.2,1.4,2.9,2.5c0.3,0.5,0.5,1.1,0.5,1.8C156.7,39,153.5,43.9,149.4,43.9z
		 M146.7,41.1c0.3,0.2,0.6,0.3,1,0.3c1.1,0,2.6-1.4,3.6-2.7c1.4-1.8,2.4-4.1,1.8-4.5C152.4,33.7,148.9,36.6,146.7,41.1L146.7,41.1z"
		/>
	<path class="st0" d="M164.9,34.2c0,0.3,0,0.6,0,0.9c2-1.9,4.3-3.4,6-3.4c1.4,0,2.6,1.7,2.6,3.4c0,1-0.9,2.6-2.4,5.2
		c-1.5,2.4-3.1,5.5-3.1,7.3c0,1,0.3,1.6,0.9,1.6c1.6,0,4.1-3.1,5.8-6.2c0.5-0.9,1.1-0.8,1.6-0.2c0.4,1.1,0.3,2.3-0.2,3.3
		c-1.3,2.6-4.8,5.1-7.6,5.1c-3.2,0-4.5-1.6-4.5-4.1s2.2-6.9,4-9.8c1-1.6,1.8-2.8,1.4-2.8s-2.7,1.3-5.3,4.2
		c-2.6,2.7-4.7,7.4-6.7,11.6c-0.3,0.8-0.9,1-1.7,0.3c-0.7-0.7-1-1.6-1-2.6c0-0.8,0.2-1.7,0.4-2.5c0.9-2.7,4.5-9.3,7.5-13.7
		c0.6-0.9,1.3-0.8,1.8,0C164.7,32.7,164.9,33.4,164.9,34.2z"/>
	<path class="st0" d="M175,41.8c1.4-3.2,2.9-6.4,4.6-9.4c-1,0-2-0.5-2.7-1.3c-0.7-1-0.2-1.5,0.9-1.4c1.1,0,2.3,0,3.4-0.1
		c1.5-2.6,2.5-4.1,3.6-5.7c0.7-1,1.3-1,1.8-0.1c0.3,0.6,0.5,1.3,0.5,1.9c0,1.1-0.3,2.2-0.8,3.3c1.1,0.1,2,0.6,2.6,1.5
		c0.5,0.8,0.1,1.4-1,1.3c-1-0.1-2.1,0-3.1,0.1c-1.8,3.1-4.5,7.8-6.1,11.3c-0.5,1.1-0.8,2.3-0.9,3.5c0,1.4,0.5,2.4,1.3,2.4
		c1.8,0,4.3-3,6-6.5c0.5-1.1,1.6-1.2,1.9,0c0.2,1,0,2-0.5,2.8c-0.7,1.4-3.8,5.5-7.8,5.5c-2.5,0-4.7-2-4.7-5.3
		C174.1,44.4,174.4,43.1,175,41.8z"/>
	<path class="st0" d="M188.9,45.9c1,0.1,1.9,0.7,2.3,1.7c0.4,1.1,0.3,2.3-0.4,3.3c-0.8,0.9-2.6,0.6-3.4-0.7
		c-0.3-0.5-0.5-1.1-0.6-1.7C186.9,47.2,187.8,45.9,188.9,45.9z M200.8,21.4c0.7-1,1.4-1.1,1.9,0c0.3,0.6,0.4,1.2,0.5,1.8
		c-0.1,1.9-0.7,3.8-1.8,5.5c-2.6,4.6-6.5,11.9-8.8,17.1c-0.4,0.8-0.8,1-1.6,0.2c-0.6-0.6-0.9-1.5-0.9-2.4c0.1-1,0.3-2,0.7-2.9
		C193.5,33.9,196.8,27.5,200.8,21.4z"/>
</g>
</svg>
