<?xml version="1.0" encoding="utf-8"?>
<!-- Generator: Adobe Illustrator 21.1.0, SVG Export Plug-In . SVG Version: 6.00 Build 0)  -->
<svg version="1.1" id="Layer_1" xmlns="http://www.w3.org/2000/svg" xmlns:xlink="http://www.w3.org/1999/xlink" x="0px" y="0px"
	 viewBox="0 0 225 70" style="enable-background:new 0 0 225 70;" xml:space="preserve">
<style type="text/css">
	.st0{fill:#C10C0C;}
</style>
<title>simple</title>
<g>
	<path class="st0" d="M54.9,37.4c0.5-0.1,1-0.1,1.5-0.1c1.3,0,2.6,0.4,3.7,1.2c1.8,1.5,5,3.9,7.7,3.9c0.9,0.1,1.8-0.2,2.5-0.8
		c0.6-0.5,0.6-1.3,0.2-1.8c-0.1-0.1-0.1-0.1-0.2-0.2c-3.4-2.7-10-5.2-10-10c0-6.4,7.4-12.1,11.6-13.8c1.1-0.5,2.4-0.8,3.6-0.8
		c1,0,2.1,0.3,2.9,1c1.2,1.1,2.1,2.5,2.5,4.1c0.5,1.9-0.7,3.8-1.4,4.9c-1.1,1.6-2.2,3.3-3.2,5.1c-0.4,0.8-0.9,1.1-1.8,0.2
		c-0.7-0.7-1.1-1.6-1.1-2.6c0.2-1.8,1-3.5,2.2-4.9c1.2-1.8,2.5-3.8,1.8-4.3c-1.8-1.3-12.1,5.7-12.4,11.1c-0.1,3.1,6.3,5.8,8.2,7.1
		c0.8,0.5,1.3,1.4,1.4,2.4c-0.2,1.4-0.8,2.8-1.8,3.8c-1.7,1.7-4,2.5-6.4,2.4c-3.4,0-8-1.9-11.8-6.2C53.9,38.1,54.2,37.6,54.9,37.4z"
		/>
	<path class="st0" d="M80,44.9c-2.9,0-4.2-1.6-4.2-4c0-1.1,0.2-2.1,0.6-3.1c1.6-4,3.6-7.7,6-11.2c0.7-0.9,1.3-1,1.9-0.3
		c0.9,0.9,1.3,3,0,5.3c-0.9,2-3.1,5.6-3.9,7.5c-0.4,0.9-0.6,1.9-0.7,2.8c0,0.8,0.2,1.2,0.7,1.2c1.9,0,4.3-3.2,5.8-6.4
		c0.4-0.8,1-0.8,1.4,0.1c0.4,1,0.3,2.2-0.2,3.2C86.1,42.8,83.2,44.7,80,44.9z M86.1,20.8c1.3,0,2.6,1.7,2.6,3.1s-0.7,2.4-1.9,2.4
		c-1.5-0.1-2.8-1.3-2.8-2.9C83.9,22.1,84.8,21,86.1,20.8z"/>
	<path class="st0" d="M94.8,28c0,0.4-0.1,0.9-0.1,1.3c2-2,4.7-3.8,6.2-3.8s2.5,1.7,2.5,3.7c2.1-1.9,4.6-3.5,6.1-3.4s2.1,1.3,2.1,2.9
		s-1,3.8-2.9,6.8c-1.3,2-2.6,4.1-2.6,5.8c0,1.1,0.5,1.8,1.2,1.8c1.5,0,3.8-3.3,5.5-6.2c0.4-0.7,0.9-0.8,1.3-0.3s0.6,2.3,0,3.4
		c-1.3,2.7-4.7,5.1-7.6,5.1c-3.2,0-5-1.8-5-4.3c0-1.1,0.3-2.1,0.7-3.1c1-2,2.2-4,3.4-5.9c1-1.6,2.2-3,1.8-3s-1.4,0.5-4.2,3.3
		c-3.7,3.7-6,8.2-7.9,12.6c-0.5,0.9-1.1,1-1.9,0.3c-0.7-0.7-1.1-1.6-1-2.6c0.1-1.2,0.4-2.4,0.8-3.5c1-2.2,2.2-4.3,3.5-6.2
		c1.3-2.1,2.6-3.9,2.2-3.9s-2.2,1-5.1,4.2c-2.7,2.8-4.8,7.1-6.7,11.5c-0.3,0.8-0.8,1-1.7,0.3c-0.8-0.6-1.2-1.5-1.2-2.5
		c0-0.9,0.2-1.7,0.5-2.6c2-4.8,4.4-9.4,7.3-13.8c0.6-0.9,1.3-0.8,1.8,0C94.5,26.4,94.8,27.2,94.8,28z"/>
	<path class="st0" d="M128,37.5c-0.9,2.3-2.4,4.3-4.2,6c3.5-0.7,6.2-3.8,7.6-6.6c0.6-1.1,1.6-0.8,1.8,0.1c0.1,1.1-0.1,2.2-0.7,3.2
		c-2.1,3.8-6.1,5.1-10,5.1c-3.7,0-6.1-1.3-7.1-3.8c-2.1,3.9-4.1,7.9-6.1,12.6c-0.4,0.9-0.9,1-1.4,0.5c-0.6-0.7-1-1.6-0.9-2.6
		c0-1,0.2-2.1,0.6-3.1c1.4-4.5,9.2-19.2,12.1-23.1c0.8-1,1.5-0.8,1.8-0.3c0.3,0.5,0.5,1.1,0.5,1.8c1.1-0.8,2.4-1.3,3.8-1.4
		c2.8,0,4.2,2.6,4.2,5C129.7,33.2,129.1,35.4,128,37.5z M118.5,35.6c-1.5,3-1.1,6.4,0.1,6.4c1.5,0,3.6-2.6,5.5-6.5
		c1-1.9,1.6-4,1.7-6.2c0-0.8-0.1-1.4-0.3-1.5c-0.8-0.4-3.4,1.8-5.5,5.2L118.5,35.6z"/>
	<path class="st0" d="M146.9,20.8c-1.5,5.6-6.6,11.2-10.8,14c-0.9,1.9-1.4,4-1.6,6.2c0,1.1,0.3,1.9,0.9,1.9c2.2,0,4.9-3.2,6.7-6.6
		c0.6-1.2,1.6-1.2,2,0c0.2,1,0,2.1-0.5,3.1c-0.7,1.4-4.2,5.3-8.2,5.3c-2.9,0-4.7-1.6-4.7-4.9c0-0.9,0.1-1.8,0.3-2.7
		c1.8-7.8,7.2-16.6,11.8-21.5c0.9-0.9,1.8-1.2,2.6-0.3c1,0.9,1.6,2.1,1.6,3.4C147.2,19.5,147.1,20.2,146.9,20.8z M141.5,24.6
		c-1.2,2.1-3.3,5.6-3.6,6.4c1.8-1.8,3.4-3.8,4.7-6c1.6-2.7,2.2-4.8,1.9-5S143.1,21.8,141.5,24.6z"/>
	<path class="st0" d="M149.9,37.8c-1.2,0-2.4-0.3-3.4-1c-0.3,0.9-0.4,1.8-0.4,2.8c0,2.1,0.9,3.6,2.3,3.6c3.6,0,6.8-3.5,8.7-6.4
		c0.5-0.8,1.1-0.8,1.5,0.1c0.2,1.1,0,2.2-0.7,3.1c-2.2,3.1-5.7,5-9.4,5.1c-4.4,0-6.8-2.8-6.8-6.6c0-1.9,0.5-3.8,1.5-5.4
		c2.5-5,6.3-7.5,9-7.5c0.6,0,1.1,0.1,1.6,0.4c1.1,0.6,2.2,1.4,2.9,2.5c0.3,0.5,0.5,1.1,0.5,1.8C157.2,32.8,154.1,37.8,149.9,37.8z
		 M147.2,34.9c0.3,0.2,0.6,0.3,1,0.3c1.1,0,2.6-1.4,3.6-2.7c1.4-1.8,2.4-4.1,1.8-4.5C153,27.5,149.5,30.4,147.2,34.9L147.2,34.9z"/>
	<path class="st0" d="M161.4,39.7c1,0.1,1.9,0.7,2.3,1.6c0.4,1.1,0.3,2.3-0.4,3.3c-0.8,0.9-2.6,0.6-3.4-0.7
		c-0.3-0.5-0.5-1.1-0.6-1.7C159.4,41,160.2,39.7,161.4,39.7z M173.2,15.2c0.7-1,1.4-1.1,1.9,0c0.3,0.6,0.4,1.2,0.5,1.8
		c-0.1,1.9-0.7,3.8-1.8,5.5c-2.6,4.6-6.5,11.9-8.8,17.1c-0.4,0.8-0.8,1-1.6,0.2c-0.6-0.6-0.9-1.5-0.9-2.4c0.1-1,0.3-2,0.7-2.9
		C165.9,27.8,169.3,21.3,173.2,15.2L173.2,15.2z"/>
</g>
</svg>
