<?xml version="1.0" encoding="utf-8"?>
<!-- Generator: Adobe Illustrator 21.1.0, SVG Export Plug-In . SVG Version: 6.00 Build 0)  -->
<svg version="1.1" id="Layer_1" xmlns="http://www.w3.org/2000/svg" xmlns:xlink="http://www.w3.org/1999/xlink" x="0px" y="0px"
	 viewBox="0 0 35 35" style="enable-background:new 0 0 35 35;" xml:space="preserve">
<style type="text/css">
	.st0{opacity:0.7;}
	.st1{fill:#FFF946;}
	.st2{fill:#C10C0C;}
</style>
<g class="st0">
	<path class="st1" d="M15.7,14.5c0,0-0.3-10.3,0.8-11.6s2.2-2,3,0.2c0.8,2.2-0.8,11.6-0.8,11.6s7.8-7.5,9.5-8.1
		c2.3-0.8,2.9,1.9,1.5,3.2c-1.3,1.3-9.1,7-9.1,7s9.7,0,11.6,0.8s1.6,2.3-0.2,3c-1.8,0.7-11.6-0.8-11.6-0.8s8.2,7.5,8.5,9.1
		c0.5,2.6-1.2,2-3.1,0.8s-7.5-8-7.5-8s-0.2,9.8-0.8,11.6s-2.8,1-3-0.2c-0.2-1.2,0.8-11.6,0.8-11.6s-6.6,7.9-8.6,8.3
		c-2.5,0.5-3-1.5-1.7-3.4c1.3-1.9,8.4-7.1,8.4-7.1s-9.9,0.2-11.6-0.8c-1.1-0.7-2-2.2,0.2-3c2.2-0.9,11.6,0.8,11.6,0.8
		S6.7,9.9,5.8,7.7C5.2,6.5,6.4,3.6,8.2,4.7C10.2,5.7,15.7,14.5,15.7,14.5z"/>
</g>
<g>
	<path class="st2" d="M17.1,13.2c0,0-0.3-10.3,0.8-11.6s2.2-2,3,0.2c0.8,2.2-0.8,11.6-0.8,11.6s7.8-7.5,9.5-8.1
		c2.3-0.8,2.9,1.9,1.5,3.2c-1.3,1.3-9.1,7-9.1,7s9.7,0,11.6,0.8c1.9,0.8,1.6,2.3-0.2,3c-1.8,0.7-11.6-0.8-11.6-0.8s8.2,7.5,8.5,9.1
		c0.5,2.6-1.2,2-3.1,0.8s-7.5-8-7.5-8s-0.2,9.8-0.8,11.6c-0.6,1.8-2.8,1-3-0.2c-0.2-1.2,0.8-11.6,0.8-11.6S10,28.2,8,28.7
		c-2.5,0.5-3-1.5-1.7-3.4s8.4-7.1,8.4-7.1s-9.9,0.2-11.6-0.8c-1.1-0.7-2-2.2,0.2-3s11.6,0.8,11.6,0.8S8.1,8.6,7.2,6.5
		C6.6,5.2,7.8,2.4,9.6,3.4C11.5,4.5,17.1,13.2,17.1,13.2z"/>
</g>
</svg>
