<?xml version="1.0" encoding="utf-8"?>
<!-- Generator: Adobe Illustrator 21.1.0, SVG Export Plug-In . SVG Version: 6.00 Build 0)  -->
<svg version="1.1" id="Layer_1" xmlns="http://www.w3.org/2000/svg" xmlns:xlink="http://www.w3.org/1999/xlink" x="0px" y="0px"
	 viewBox="0 0 35 35" style="enable-background:new 0 0 35 35;" xml:space="preserve">
<style type="text/css">
	.st0{opacity:0.7;fill:#FFF946;}
	.st1{fill:#C10C0C;}
</style>
<polygon class="st0" points="29.1,29.5 22.6,28.5 20.2,34.6 15.5,30 9.9,33.5 8.8,27 2.3,26.6 5.2,20.7 0.1,16.5 6,13.5 4.4,7.1 
	10.9,8.1 13.3,1.9 18,6.6 23.6,3.1 24.6,9.6 31.2,10 28.2,15.9 33.3,20.1 27.5,23.1 "/>
<polygon class="st1" points="29.9,27.7 23.4,26.7 21,32.8 16.3,28.2 10.7,31.7 9.7,25.2 3.1,24.8 6,18.9 0.9,14.7 6.8,11.7 5.2,5.3 
	11.7,6.3 14.1,0.1 18.8,4.8 24.4,1.2 25.4,7.8 32,8.2 29,14.1 34.1,18.3 28.3,21.3 "/>
</svg>
